<svg xmlns="http://www.w3.org/2000/svg" viewBox="0 0 35.9 35.9"><defs><style>.cls-1{fill:#fff;}</style></defs><g id="Capa_2" data-name="Capa 2"><g id="Capa_1-2" data-name="Capa 1"><path class="cls-1" d="M26.76,11.29a3.43,3.43,0,0,0-.84-1.3,3.54,3.54,0,0,0-1.3-.85,6.4,6.4,0,0,0-2.1-.39C21.33,8.7,21,8.69,18,8.69s-3.37,0-4.57.06a6.26,6.26,0,0,0-2.09.39,3.79,3.79,0,0,0-2.15,2.15,6.26,6.26,0,0,0-.39,2.09c-.05,1.2-.06,1.55-.06,4.57s0,3.38.06,4.57a6.4,6.4,0,0,0,.39,2.1,3.54,3.54,0,0,0,.85,1.3,3.43,3.43,0,0,0,1.3.84,6,6,0,0,0,2.09.39c1.2.06,1.55.07,4.57.07s3.38,0,4.57-.07a6.14,6.14,0,0,0,2.1-.39,3.68,3.68,0,0,0,2.14-2.14,6.14,6.14,0,0,0,.39-2.1c.06-1.19.07-1.55.07-4.57s0-3.37-.07-4.57A6,6,0,0,0,26.76,11.29ZM18,23.76A5.81,5.81,0,1,1,23.76,18,5.81,5.81,0,0,1,18,23.76Zm6-10.49a1.36,1.36,0,1,1,1.35-1.35A1.35,1.35,0,0,1,24,13.27Z"/><circle class="cls-1" cx="17.95" cy="17.95" r="3.77"/><path class="cls-1" d="M18,0a18,18,0,1,0,18,18A18,18,0,0,0,18,0ZM29.19,22.61a8.41,8.41,0,0,1-.53,2.75,5.75,5.75,0,0,1-3.3,3.3,8.47,8.47,0,0,1-2.75.53c-1.2,0-1.59.06-4.66.06s-3.45,0-4.66-.06a8.4,8.4,0,0,1-2.74-.53,5.39,5.39,0,0,1-2-1.3,5.59,5.59,0,0,1-1.31-2,8.18,8.18,0,0,1-.52-2.75C6.66,21.41,6.65,21,6.65,18s0-3.45.07-4.66a8.17,8.17,0,0,1,.52-2.74,5.42,5.42,0,0,1,1.31-2,5.42,5.42,0,0,1,2-1.31,8.17,8.17,0,0,1,2.74-.52c1.21-.06,1.59-.07,4.66-.07s3.46,0,4.66.07a8.24,8.24,0,0,1,2.75.52,5.59,5.59,0,0,1,2,1.31,5.39,5.39,0,0,1,1.3,2,8.4,8.4,0,0,1,.53,2.74c0,1.21.06,1.59.06,4.66S29.24,21.41,29.19,22.61Z"/></g></g></svg>