<svg xmlns="http://www.w3.org/2000/svg" viewBox="0 0 35.9 35.9"><defs><style>.cls-1{fill:#fff;}</style></defs><g id="Capa_2" data-name="Capa 2"><g id="Capa_1-2" data-name="Capa 1"><path class="cls-1" d="M18,0a18,18,0,1,0,18,18A18,18,0,0,0,18,0Zm9.87,15.9a8.79,8.79,0,0,1-2-.24,9.56,9.56,0,0,1-3.11-1.34c-.05,0-.11-.11-.16-.08s0,.12,0,.18c0,2.57,0,5.15,0,7.72A7.35,7.35,0,0,1,16,29.46a7.23,7.23,0,0,1-4.19-.74,4.72,4.72,0,0,1-.61-.37L11,28.19h0a1.74,1.74,0,0,1-.38-.27,7.28,7.28,0,0,1-2.48-3.56,6.67,6.67,0,0,1-.3-1.54,7.09,7.09,0,0,1,0-1.13,7.3,7.3,0,0,1,4.81-6.39,6.85,6.85,0,0,1,1.95-.41,7,7,0,0,1,1.45,0c.06,0,.1,0,.1.1,0,.26,0,.53,0,.8,0,0,0,2,0,3v.1c0,.09-.05.12-.14.1a3,3,0,0,0-.78-.12,2.82,2.82,0,0,0-1.19.17,3.3,3.3,0,0,0-.74,5.89,2.61,2.61,0,0,1,.27.19l.06.06a5.61,5.61,0,0,0,.79.26A3.24,3.24,0,0,0,16.9,25a3.28,3.28,0,0,0,1.56-2.32,2.69,2.69,0,0,0,0-.57V6.6c0-.24,0-.21.21-.21h3.66c.12,0,.12,0,.12.12a7.88,7.88,0,0,0,.13,1c.51,2.61,3.56,4.21,4.5,4.35a5.14,5.14,0,0,0,.78.07c.11,0,.11,0,.11.11s0,2.74,0,3.66C28.06,15.89,28,15.9,27.82,15.9Z"/></g></g></svg>